<svg width="10" height="16" viewBox="0 0 10 16" fill="none" xmlns="http://www.w3.org/2000/svg">
<path d="M4.49411 15.6614C4.6283 15.7955 4.81026 15.8709 5 15.8709C5.18974 15.8709 5.3717 15.7955 5.50589 15.6614L9.79914 11.3681C9.92948 11.2332 10.0016 11.0524 9.99997 10.8648C9.99834 10.6772 9.92309 10.4977 9.79042 10.3651C9.65775 10.2324 9.47829 10.1572 9.29068 10.1555C9.10306 10.1539 8.92231 10.226 8.78736 10.3564L5.71554 13.4282V0.844662C5.71554 0.654888 5.64015 0.472887 5.50596 0.338697C5.37177 0.204507 5.18977 0.12912 5 0.12912C4.81023 0.12912 4.62823 0.204507 4.49404 0.338697C4.35985 0.472887 4.28446 0.654888 4.28446 0.844662V13.4282L1.21264 10.3564C1.07768 10.226 0.896937 10.1539 0.709324 10.1555C0.521711 10.1572 0.342245 10.2324 0.209578 10.3651C0.0769103 10.4977 0.00165735 10.6772 2.70492e-05 10.8648C-0.00160325 11.0524 0.0705196 11.2332 0.200861 11.3681L4.49411 15.6614Z" fill="white"/>
</svg>
